<?xml version="1.0" standalone="no"?>
<!DOCTYPE svg PUBLIC "-//W3C//DTD SVG 20010904//EN"
 "http://www.w3.org/TR/2001/REC-SVG-20010904/DTD/svg10.dtd">
<svg version="1.0" xmlns="http://www.w3.org/2000/svg"
 width="300.000000pt" height="167.000000pt" viewBox="0 0 300.000000 167.000000"
 preserveAspectRatio="xMidYMid meet">
<metadata>
Created by potrace 1.10, written by Peter Selinger 2001-2011
</metadata>
<g transform="translate(0.000000,167.000000) scale(0.100000,-0.100000)"
fill="#000000" stroke="none">
<path d="M2560 1038 l0 -538 -377 0 -378 0 3 380 3 380 -96 0 -95 0 0 -380 0
-380 -700 0 -700 0 0 -95 0 -95 1265 0 1265 0 0 633 0 632 -95 0 -95 0 0 -537z
m145 -98 l0 -585 -1217 -3 -1218 -2 0 49 c0 35 4 51 16 55 9 3 312 6 673 6
656 0 658 0 677 21 18 20 19 43 22 375 l3 354 48 0 48 0 6 -227 c4 -124 7
-284 7 -355 0 -115 2 -130 20 -148 19 -19 33 -20 392 -20 368 0 372 0 395 22
l23 21 0 498 c0 274 3 505 6 514 5 12 17 15 53 13 l46 -3 0 -585z"/>
</g>
</svg>
