<?xml version="1.0" standalone="no"?>
<!DOCTYPE svg PUBLIC "-//W3C//DTD SVG 20010904//EN"
 "http://www.w3.org/TR/2001/REC-SVG-20010904/DTD/svg10.dtd">
<svg version="1.0" xmlns="http://www.w3.org/2000/svg"
 width="300.000000pt" height="133.000000pt" viewBox="0 0 300.000000 133.000000"
 preserveAspectRatio="xMidYMid meet">
<metadata>
Created by potrace 1.10, written by Peter Selinger 2001-2011
</metadata>
<g transform="translate(0.000000,133.000000) scale(0.100000,-0.100000)"
fill="#000000" stroke="none">
<path d="M345 975 l0 -145 288 0 287 0 0 -290 0 -290 145 0 145 0 0 290 0 290
720 0 720 0 0 145 0 145 -1152 0 -1153 0 0 -145z m2260 0 l0 -100 -696 -3
c-692 -2 -696 -2 -715 -23 -17 -19 -19 -44 -24 -283 l-5 -261 -100 0 -100 0
-3 261 c-2 257 -3 261 -25 282 -22 21 -33 22 -282 24 l-260 3 -3 89 c-2 49 -1
95 2 103 5 11 197 13 1108 11 l1103 -3 0 -100z"/>
</g>
</svg>
